<?xml version="1.0" standalone="no"?>
<!DOCTYPE svg PUBLIC "-//W3C//DTD SVG 20010904//EN"
 "http://www.w3.org/TR/2001/REC-SVG-20010904/DTD/svg10.dtd">
<svg version="1.0" xmlns="http://www.w3.org/2000/svg"
 width="670.000000pt" height="166.000000pt" viewBox="0 0 670.000000 166.000000"
 preserveAspectRatio="xMidYMid meet">

<g transform="translate(0.000000,166.000000) scale(0.100000,-0.100000)"
fill="#000000" stroke="none">
<path d="M640 1445 c-78 -19 -125 -41 -202 -92 -134 -88 -231 -238 -261 -400
l-7 -33 125 0 c93 0 125 3 125 13 0 29 60 135 99 175 24 24 73 58 109 75 61
29 76 32 162 32 82 0 103 -4 152 -27 77 -36 140 -97 177 -171 16 -34 32 -70
35 -79 5 -16 20 -18 126 -18 91 0 120 3 120 13 0 34 -33 134 -66 199 -46 91
-162 209 -249 255 -130 68 -308 91 -445 58z"/>
<path d="M2259 850 c130 -324 238 -590 241 -590 3 0 52 122 110 270 58 149
107 270 110 270 3 0 54 -124 114 -275 l110 -275 223 557 c123 307 230 575 238
596 l15 37 -128 0 -128 0 -15 -42 c-60 -162 -203 -498 -209 -491 -4 4 -53 124
-110 265 -57 142 -107 255 -111 250 -6 -6 -132 -312 -194 -469 -10 -24 -21
-43 -25 -43 -4 0 -56 119 -115 265 l-108 265 -127 0 -127 0 236 -590z"/>
<path d="M4070 840 l0 -600 355 0 355 0 0 120 0 120 -235 0 -235 0 0 125 0
125 188 0 188 0 45 115 46 115 -234 0 -233 0 0 125 0 125 235 0 235 0 0 115 0
115 -355 0 -355 0 0 -600z"/>
<path d="M5560 840 l0 -601 118 3 117 3 0 328 c0 180 2 327 5 327 4 0 110 -95
633 -572 l87 -80 0 596 0 596 -117 0 -118 0 2 -325 c1 -179 -1 -325 -5 -325
-5 0 -169 146 -365 325 l-357 326 0 -601z"/>
<path d="M177 738 c40 -220 199 -406 406 -477 158 -55 320 -45 473 28 150 72
275 216 323 375 34 112 40 106 -99 106 -106 0 -121 -2 -126 -17 -64 -206 -255
-320 -460 -274 -113 26 -234 138 -264 246 l-13 45 -123 0 -123 0 6 -32z"/>
</g>
</svg>
